<svg width="60" height="60" viewBox="0 0 60 60" fill="none" xmlns="http://www.w3.org/2000/svg">
<path d="M0 30C0 13.4315 13.4315 0 30 0C46.5685 0 60 13.4315 60 30C60 46.5685 46.5685 60 30 60C13.4315 60 0 46.5685 0 30Z" fill="#FFE9C9"/>
<path d="M42.2184 26.2263L42.6219 25.3007C43.3411 23.6502 44.6365 22.3361 46.2529 21.6172L47.4958 21.0643C48.1681 20.7653 48.1681 19.7873 47.4958 19.4883L46.3224 18.9663C44.6644 18.2289 43.3459 16.8662 42.6389 15.1597L42.2246 14.1593C41.936 13.4622 40.9731 13.4622 40.6843 14.1593L40.27 15.1597C39.5632 16.8662 38.2447 18.2289 36.5867 18.9663L35.4131 19.4883C34.741 19.7873 34.741 20.7653 35.4131 21.0643L36.6562 21.6172C38.2726 22.3361 39.568 23.6502 40.2872 25.3007L40.6905 26.2263C40.9859 26.904 41.9232 26.904 42.2184 26.2263ZM18.2181 38.1819H21.7429L22.7247 35.7274H27.4569L28.4387 38.1819H31.9635L26.7271 25.091H23.4544L18.2181 38.1819ZM25.0908 29.8123L26.1478 32.4547H24.0338L25.0908 29.8123ZM33.2727 38.1819V25.091H36.5455V38.1819H33.2727ZM13.6364 16.9092C12.7326 16.9092 12 17.6418 12 18.5456V44.7274C12 45.6311 12.7326 46.3637 13.6364 46.3637H43.0909C43.9947 46.3637 44.7273 45.6311 44.7273 44.7274V30.0001H41.4545V43.091H15.2727V20.1819H31.6364V16.9092H13.6364Z" fill="#BF7D1D"/>
</svg>
