<svg width="60" height="60" viewBox="0 0 60 60" fill="none" xmlns="http://www.w3.org/2000/svg">
<path d="M0 30C0 13.4315 13.4315 0 30 0C46.5685 0 60 13.4315 60 30C60 46.5685 46.5685 60 30 60C13.4315 60 0 46.5685 0 30Z" fill="#FFE9C9"/>
<path d="M19.8507 23.5948C21.9795 20.2294 25.7301 18 30.0003 18C34.2705 18 38.0211 20.2294 40.1501 23.5948L42.6853 21.9911C40.0297 17.793 35.3418 15 30.0003 15C24.6589 15 19.9709 17.793 17.3153 21.9911L19.8507 23.5948ZM30.0003 42C25.7301 42 21.9795 39.7707 19.8507 36.4052L17.3153 38.009C19.9709 42.207 24.6589 45 30.0003 45C35.3418 45 40.0297 42.207 42.6853 38.009L40.1501 36.4052C38.0211 39.7707 34.2705 42 30.0003 42ZM30 24C30.8284 24 31.5 24.6716 31.5 25.5C31.5 26.3284 30.8284 27 30 27C29.1716 27 28.5 26.3284 28.5 25.5C28.5 24.6716 29.1716 24 30 24ZM30 30C32.4854 30 34.5 27.9854 34.5 25.5C34.5 23.0147 32.4854 21 30 21C27.5146 21 25.5 23.0147 25.5 25.5C25.5 27.9854 27.5146 30 30 30ZM30 34.5C28.3431 34.5 27 35.8431 27 37.5H24C24 34.1864 26.6863 31.5 30 31.5C33.3137 31.5 36 34.1864 36 37.5H33C33 35.8431 31.6569 34.5 30 34.5ZM16.5 28.5C15.6716 28.5 15 29.1716 15 30C15 30.8285 15.6716 31.5 16.5 31.5C17.3284 31.5 18 30.8285 18 30C18 29.1716 17.3284 28.5 16.5 28.5ZM12 30C12 27.5147 14.0147 25.5 16.5 25.5C18.9853 25.5 21 27.5147 21 30C21 32.4854 18.9853 34.5 16.5 34.5C14.0147 34.5 12 32.4854 12 30ZM42 30C42 29.1716 42.6716 28.5 43.5 28.5C44.3284 28.5 45 29.1716 45 30C45 30.8285 44.3284 31.5 43.5 31.5C42.6716 31.5 42 30.8285 42 30ZM43.5 25.5C41.0146 25.5 39 27.5147 39 30C39 32.4854 41.0146 34.5 43.5 34.5C45.9854 34.5 48 32.4854 48 30C48 27.5147 45.9854 25.5 43.5 25.5Z" fill="#BF7D1D"/>
</svg>
