<svg width="61" height="61" viewBox="0 0 61 61" fill="none" xmlns="http://www.w3.org/2000/svg">
<rect x="0.666016" y="0.5" width="60" height="60" rx="30" fill="#FFE9C9"/>
<path d="M45.066 21.4998V17.8998H16.266V43.0998H45.066V39.4998H30.666C29.6719 39.4998 28.866 38.6939 28.866 37.6998V23.2998C28.866 22.3057 29.6719 21.4998 30.666 21.4998H45.066ZM14.466 14.2998H46.866C47.8602 14.2998 48.666 15.1057 48.666 16.0998V44.8998C48.666 45.8939 47.8602 46.6998 46.866 46.6998H14.466C13.4719 46.6998 12.666 45.8939 12.666 44.8998V16.0998C12.666 15.1057 13.4719 14.2998 14.466 14.2998ZM32.466 25.0998V35.8998H45.066V25.0998H32.466ZM36.066 28.6998H41.466V32.2998H36.066V28.6998Z" fill="#BF7D1D"/>
</svg>
