<svg width="60" height="60" viewBox="0 0 60 60" fill="none" xmlns="http://www.w3.org/2000/svg">
<path d="M0 30C0 13.4315 13.4315 0 30 0C46.5685 0 60 13.4315 60 30C60 46.5685 46.5685 60 30 60C13.4315 60 0 46.5685 0 30Z" fill="#FFE9C9"/>
<path d="M29.9997 12L43.4456 14.988C44.1944 15.1544 44.727 15.8184 44.727 16.5854V32.9273C44.727 36.21 43.0864 39.2756 40.355 41.0965L29.9997 48L19.6445 41.0965C16.9131 39.2756 15.2725 36.21 15.2725 32.9273V16.5854C15.2725 15.8184 15.8051 15.1544 16.5538 14.988L29.9997 12ZM29.9997 15.3526L18.5452 17.898V32.9273C18.5452 35.1158 19.6389 37.1594 21.4599 38.3734L29.9997 44.0667L38.5396 38.3734C40.3605 37.1594 41.4543 35.1158 41.4543 32.9273V17.898L29.9997 15.3526ZM37.2855 23.8175L39.5996 26.1317L29.1858 36.5455L22.2434 29.603L24.5575 27.2887L29.1847 31.916L37.2855 23.8175Z" fill="#BF7D1D"/>
</svg>
