<svg width="70" height="60" viewBox="0 0 70 60" fill="none" xmlns="http://www.w3.org/2000/svg">
<g filter="url(#filter0_d_92_160)">
<path d="M15.6451 17.0174C17.1178 17.0174 18.3117 18.2113 18.3117 19.6841C22.6711 19.6841 26.6814 21.1785 29.8584 23.6828L35.6451 23.6841C39.1974 23.6841 42.3891 25.2276 44.5864 27.6806L52.9784 27.6841C58.2912 27.6841 62.8782 30.7913 65.0214 35.2878C58.7153 43.6095 48.5035 49.0175 36.9784 49.0175C29.5366 49.0175 23.2445 47.4086 18.1494 44.5961C17.7802 45.619 16.7981 46.3508 15.6451 46.3508H7.64506C6.17231 46.3508 4.97839 45.1569 4.97839 43.6841V19.6841C4.97839 18.2113 6.17231 17.0174 7.64506 17.0174H15.6451ZM18.3144 25.0174L18.3117 38.4071L18.4327 38.4961C23.2162 41.8572 29.4534 43.6841 36.9784 43.6841C44.9891 43.6841 52.4414 40.6022 57.8721 35.3388L58.2265 34.9828L57.9086 34.715C56.6712 33.7471 55.1534 33.1462 53.5251 33.0359L52.9784 33.0174L47.3472 33.0148C47.5422 33.8732 47.6451 34.7665 47.6451 35.6841V38.3508H23.6451V33.0174L41.7518 33.0148L41.66 32.8055C40.6454 30.6892 38.5467 29.1916 36.0835 29.0316L35.6451 29.0174L27.8333 29.0169C25.414 26.5494 22.043 25.0182 18.3144 25.0174ZM12.9784 22.3508H10.3117V41.0175H12.9784V22.3508ZM38.7022 2.55174L39.6443 3.49513L40.5878 2.55174C43.1912 -0.0517523 47.4126 -0.0517523 50.016 2.55174C52.6195 5.15523 52.6195 9.37633 50.016 11.9798L39.6451 22.3508L29.2742 11.9798C26.6707 9.37633 26.6707 5.15523 29.2742 2.55174C31.8776 -0.0517523 36.0987 -0.0517523 38.7022 2.55174ZM33.0454 6.32297C32.5824 6.78582 32.5312 7.50428 32.8891 8.02193L33.0424 8.20574L39.6424 14.8067L46.2448 8.20859C46.7075 7.74574 46.759 7.02729 46.399 6.50764L46.2448 6.32297C45.7819 5.86014 45.0635 5.8087 44.5432 6.1691L44.3584 6.32355L39.6408 11.0399L34.928 6.32012L34.7464 6.1687C34.2267 5.8087 33.5083 5.86014 33.0454 6.32297Z" fill="#0A8F65"/>
</g>
<defs>
<filter id="filter0_d_92_160" x="0.978394" y="0.599121" width="68.0431" height="58.4185" filterUnits="userSpaceOnUse" color-interpolation-filters="sRGB">
<feFlood flood-opacity="0" result="BackgroundImageFix"/>
<feColorMatrix in="SourceAlpha" type="matrix" values="0 0 0 0 0 0 0 0 0 0 0 0 0 0 0 0 0 0 127 0" result="hardAlpha"/>
<feOffset dy="6"/>
<feGaussianBlur stdDeviation="2"/>
<feComposite in2="hardAlpha" operator="out"/>
<feColorMatrix type="matrix" values="0 0 0 0 0 0 0 0 0 0 0 0 0 0 0 0 0 0 0.25 0"/>
<feBlend mode="normal" in2="BackgroundImageFix" result="effect1_dropShadow_92_160"/>
<feBlend mode="normal" in="SourceGraphic" in2="effect1_dropShadow_92_160" result="shape"/>
</filter>
</defs>
</svg>
