<svg width="63" height="64" viewBox="0 0 63 64" fill="none" xmlns="http://www.w3.org/2000/svg">
<g filter="url(#filter0_d_92_172)">
<path d="M18.1666 10.8083C18.1666 11.4396 18.2752 12.0398 18.4724 12.5949C18.7715 13.4365 18.6294 14.3719 18.0939 15.0868C17.5584 15.8016 16.7006 16.2009 15.8089 16.1503C15.7069 16.1445 15.6039 16.1416 15.4999 16.1416C12.5544 16.1416 10.1666 18.5294 10.1666 21.4749C10.1666 22.8427 10.6779 24.0845 11.524 25.0299C12.4302 26.0424 12.4302 27.5741 11.524 28.5867C10.6779 29.532 10.1666 30.7739 10.1666 32.1416C10.1666 34.4995 11.6985 36.5067 13.8286 37.2085C15.0979 37.6269 15.8615 38.92 15.6148 40.2336C15.5396 40.6339 15.4999 41.0485 15.4999 41.4749C15.4999 45.1568 18.4847 48.1416 22.1666 48.1416C25.5229 48.1416 28.3039 45.6589 28.7655 42.4304C28.7815 42.3189 28.8042 42.2099 28.8333 42.1037V10.8083C28.8333 7.86275 26.4455 5.47494 23.4999 5.47494C20.5544 5.47494 18.1666 7.86275 18.1666 10.8083ZM34.1666 42.1037C34.1957 42.2099 34.2183 42.3189 34.2343 42.4304C34.6959 45.6589 37.477 48.1416 40.8333 48.1416C44.5151 48.1416 47.4999 45.1568 47.4999 41.4749C47.4999 41.0485 47.4602 40.6339 47.385 40.2336C47.1383 38.92 47.9021 37.6269 49.1711 37.2085C51.3013 36.5067 52.8333 34.4995 52.8333 32.1416C52.8333 30.7739 52.3221 29.532 51.4759 28.5867C50.5695 27.5741 50.5695 26.0424 51.4759 25.0299C52.3221 24.0845 52.8333 22.8427 52.8333 21.4749C52.8333 18.5294 50.4455 16.1416 47.4999 16.1416C47.3959 16.1416 47.293 16.1445 47.1909 16.1503C46.2991 16.2009 45.4415 15.8016 44.9058 15.0868C44.3703 14.3719 44.2282 13.4365 44.5274 12.5949C44.7247 12.0398 44.8333 11.4396 44.8333 10.8083C44.8333 7.86275 42.4455 5.47494 39.4999 5.47494C36.5543 5.47494 34.1666 7.86275 34.1666 10.8083V42.1037ZM23.4999 0.141602C26.6858 0.141602 29.5455 1.5383 31.4999 3.75275C33.4543 1.5383 36.3141 0.141602 39.4999 0.141602C45.3909 0.141602 50.1666 4.91723 50.1666 10.8083C50.1666 10.9202 50.165 11.0318 50.1615 11.143C54.7647 12.3253 58.1666 16.5028 58.1666 21.4749C58.1666 23.4163 57.6463 25.2392 56.7389 26.8083C57.6463 28.3773 58.1666 30.2003 58.1666 32.1416C58.1666 36.0928 56.0197 39.5373 52.833 41.3805L52.8333 41.4749C52.8333 48.1024 47.4607 53.4749 40.8333 53.4749C37.0623 53.4749 33.6994 51.7365 31.4999 49.0176C29.3005 51.7365 25.9374 53.4749 22.1666 53.4749C15.5392 53.4749 10.1666 48.1024 10.1666 41.4749L10.167 41.3805C6.98024 39.5373 4.83325 36.0928 4.83325 32.1416C4.83325 30.2003 5.3536 28.3773 6.26088 26.8083C5.3536 25.2392 4.83325 23.4163 4.83325 21.4749C4.83325 16.5028 8.2352 12.3253 12.8384 11.143C12.835 11.0318 12.8333 10.9202 12.8333 10.8083C12.8333 4.91723 17.6089 0.141602 23.4999 0.141602Z" fill="#0A8F65"/>
</g>
<defs>
<filter id="filter0_d_92_172" x="0.833252" y="0.141602" width="61.3333" height="63.3335" filterUnits="userSpaceOnUse" color-interpolation-filters="sRGB">
<feFlood flood-opacity="0" result="BackgroundImageFix"/>
<feColorMatrix in="SourceAlpha" type="matrix" values="0 0 0 0 0 0 0 0 0 0 0 0 0 0 0 0 0 0 127 0" result="hardAlpha"/>
<feOffset dy="6"/>
<feGaussianBlur stdDeviation="2"/>
<feComposite in2="hardAlpha" operator="out"/>
<feColorMatrix type="matrix" values="0 0 0 0 0 0 0 0 0 0 0 0 0 0 0 0 0 0 0.25 0"/>
<feBlend mode="normal" in2="BackgroundImageFix" result="effect1_dropShadow_92_172"/>
<feBlend mode="normal" in="SourceGraphic" in2="effect1_dropShadow_92_172" result="shape"/>
</filter>
</defs>
</svg>
