<svg width="63" height="64" viewBox="0 0 63 64" fill="none" xmlns="http://www.w3.org/2000/svg">
<g filter="url(#filter0_d_92_148)">
<path d="M5.40042 32.3011C4.61898 28.6088 4.65063 24.8723 5.40266 21.3151C8.36244 21.6637 10.9459 20.6835 11.7906 18.644C12.6354 16.6046 11.5017 14.0847 9.16242 12.2383C11.146 9.19119 13.7657 6.52668 16.929 4.46849C18.7756 6.80903 21.2962 7.94348 23.3362 7.09849C25.3761 6.25351 26.3564 3.669 26.007 0.708281C29.699 -0.0731591 33.4356 -0.041506 36.9929 0.710494C36.6444 3.67028 37.6246 6.25372 39.6641 7.09849C41.7033 7.94327 44.2233 6.80959 46.0697 4.47028C49.1169 6.45383 51.7814 9.07359 53.8396 12.2368C51.499 14.0834 50.3646 16.6041 51.2094 18.644C52.0545 20.684 54.639 21.6643 57.5998 21.3149C58.3812 25.0069 58.3494 28.7435 57.5974 32.3008C54.6377 31.9523 52.0542 32.9325 51.2094 34.9717C50.3646 37.0112 51.4985 39.5312 53.8377 41.3776C51.8542 44.4245 49.2345 47.0891 46.071 49.1475C44.2246 46.8069 41.7038 45.6723 39.6641 46.5173C37.6241 47.3624 36.6438 49.9469 36.9932 52.9075C33.3009 53.6891 29.5644 53.6573 26.0073 52.9053C26.3558 49.9456 25.3756 47.3621 23.3362 46.5173C21.2967 45.6725 18.7768 46.8061 16.9304 49.1456C13.8833 47.1621 11.2188 44.5424 9.16066 41.3789C11.5012 39.5325 12.6356 37.0117 11.7906 34.9717C10.9457 32.932 8.36114 31.9517 5.40042 32.3011ZM10.1669 27.3685C13.0997 28.1803 15.52 30.0387 16.718 32.9309C17.9159 35.8229 17.5187 38.8485 16.0188 41.4963C16.2763 41.7675 16.5408 42.032 16.8122 42.2891C19.4598 40.7893 22.4852 40.3923 25.3771 41.5901C28.2692 42.788 30.1276 45.208 30.9393 48.1405C31.3129 48.1507 31.6868 48.1509 32.0606 48.1411C32.8724 45.2083 34.7308 42.788 37.623 41.5901C40.515 40.392 43.5406 40.7893 46.1884 42.2893C46.4598 42.0317 46.7241 41.7672 46.9812 41.4957C45.4814 38.8483 45.0844 35.8227 46.2822 32.9309C47.4801 30.0389 49.9001 28.1805 52.8326 27.3688C52.8428 26.9952 52.843 26.6211 52.8332 26.2472C49.9004 25.4357 47.4801 23.5771 46.2822 20.685C45.0841 17.7929 45.4814 14.7673 46.9814 12.1196C46.7238 11.8483 46.4593 11.584 46.1878 11.3269C43.5404 12.8266 40.515 13.2237 37.623 12.0259C34.731 10.828 32.8726 8.40788 32.0609 5.47529C31.6873 5.46521 31.3134 5.46503 30.9393 5.47476C30.1278 8.40759 28.2692 10.8279 25.3771 12.0259C22.485 13.2238 19.4595 12.8265 16.8117 11.3267C16.5404 11.5841 16.2761 11.8487 16.0191 12.12C17.5187 14.7677 17.9159 17.7931 16.718 20.685C15.5201 23.5768 13.1 25.4355 10.1674 26.2472C10.1573 26.6208 10.1572 26.9947 10.1669 27.3685ZM31.5001 34.808C27.0817 34.808 23.5001 31.2261 23.5001 26.808C23.5001 22.3896 27.0817 18.8079 31.5001 18.8079C35.9182 18.8079 39.5001 22.3896 39.5001 26.808C39.5001 31.2261 35.9182 34.808 31.5001 34.808ZM31.5001 29.4747C32.9729 29.4747 34.1668 28.2808 34.1668 26.808C34.1668 25.3352 32.9729 24.1413 31.5001 24.1413C30.0273 24.1413 28.8334 25.3352 28.8334 26.808C28.8334 28.2808 30.0273 29.4747 31.5001 29.4747Z" fill="#0A8F65"/>
</g>
<defs>
<filter id="filter0_d_92_148" x="0.826416" y="0.134277" width="61.3472" height="63.3472" filterUnits="userSpaceOnUse" color-interpolation-filters="sRGB">
<feFlood flood-opacity="0" result="BackgroundImageFix"/>
<feColorMatrix in="SourceAlpha" type="matrix" values="0 0 0 0 0 0 0 0 0 0 0 0 0 0 0 0 0 0 127 0" result="hardAlpha"/>
<feOffset dy="6"/>
<feGaussianBlur stdDeviation="2"/>
<feComposite in2="hardAlpha" operator="out"/>
<feColorMatrix type="matrix" values="0 0 0 0 0 0 0 0 0 0 0 0 0 0 0 0 0 0 0.25 0"/>
<feBlend mode="normal" in2="BackgroundImageFix" result="effect1_dropShadow_92_148"/>
<feBlend mode="normal" in="SourceGraphic" in2="effect1_dropShadow_92_148" result="shape"/>
</filter>
</defs>
</svg>
