<svg width="57" height="62" viewBox="0 0 57 62" fill="none" xmlns="http://www.w3.org/2000/svg">
<g filter="url(#filter0_d_92_142)">
<path d="M52.4999 0.474609V5.80794C52.4999 31.481 38.1732 43.1413 20.5 43.1413L10.4806 43.141C10.0481 45.5733 9.83333 48.2266 9.83333 51.1413H4.5C4.5 47.5074 4.80856 44.2071 5.42203 41.1898C4.80733 37.7389 4.5 33.0549 4.5 27.1413C4.5 12.4137 16.4391 0.474609 31.1665 0.474609C36.4999 0.474609 41.8332 3.14128 52.4999 0.474609ZM31.1665 5.80794C19.3846 5.80794 9.83333 15.3592 9.83333 27.1413C9.83333 28.1077 9.84187 29.0375 9.85877 29.9303C13.2038 24.657 18.1026 20.4874 24.5103 16.826L27.1564 21.4565C19.5433 25.8069 14.4933 30.7506 11.9006 37.8074L20.5 37.8079C36.5404 37.8079 46.8231 27.213 47.1583 6.8417C43.4996 7.19762 40.1001 6.97061 35.9063 6.34152C32.8367 5.88106 32.2353 5.80794 31.1665 5.80794Z" fill="#0A8F65"/>
</g>
<defs>
<filter id="filter0_d_92_142" x="0.5" y="0.474609" width="55.9999" height="60.6665" filterUnits="userSpaceOnUse" color-interpolation-filters="sRGB">
<feFlood flood-opacity="0" result="BackgroundImageFix"/>
<feColorMatrix in="SourceAlpha" type="matrix" values="0 0 0 0 0 0 0 0 0 0 0 0 0 0 0 0 0 0 127 0" result="hardAlpha"/>
<feOffset dy="6"/>
<feGaussianBlur stdDeviation="2"/>
<feComposite in2="hardAlpha" operator="out"/>
<feColorMatrix type="matrix" values="0 0 0 0 0 0 0 0 0 0 0 0 0 0 0 0 0 0 0.25 0"/>
<feBlend mode="normal" in2="BackgroundImageFix" result="effect1_dropShadow_92_142"/>
<feBlend mode="normal" in="SourceGraphic" in2="effect1_dropShadow_92_142" result="shape"/>
</filter>
</defs>
</svg>
