<svg width="60" height="60" viewBox="0 0 60 60" fill="none" xmlns="http://www.w3.org/2000/svg">
<path d="M0 30C0 13.4315 13.4315 0 30 0C46.5685 0 60 13.4315 60 30C60 46.5685 46.5685 60 30 60C13.4315 60 0 46.5685 0 30Z" fill="#FFE9C9"/>
<path d="M29.7502 12.8066C31.5293 11.6205 33.8407 11.5959 35.6447 12.7439L43.1241 17.5035H46.2C47.1941 17.5035 48 18.3094 48 19.3035V35.5036C48 36.4978 47.1941 37.3036 46.2 37.3036H43.4645C43.5716 39.0088 42.7682 40.7422 41.1522 41.7119L31.984 47.2129C30.8266 47.9072 29.3898 47.891 28.2567 47.1992C26.9961 48.314 25.0557 48.4368 23.648 47.3306L14.3945 40.06C13.015 38.9762 12.6661 37.1244 13.3784 35.6563C12.5085 34.9741 12 33.9295 12 32.8234V19.3036C12 18.3095 12.8059 17.5036 13.8 17.5036H22.7046L29.7502 12.8066ZM15.9108 33.0651L17.1565 31.9752C19.3709 30.0375 22.7289 30.2294 24.7081 32.4067L29.5721 37.7571C31.1373 39.4788 31.4227 42.0082 30.2844 44.0341L39.3 38.6249C39.8065 38.321 39.9897 37.7135 39.8009 37.2018L31.8321 26.0456C31.3844 25.419 30.5877 25.1465 29.8501 25.3678L25.3766 26.7098C23.4738 27.2806 21.4112 26.7606 20.0065 25.3559L19.4795 24.8289C18.457 23.8065 18.1926 22.3514 18.6229 21.1037H15.6V32.8234L15.9108 33.0651ZM33.712 15.7811C33.1106 15.3984 32.3402 15.4066 31.7471 15.802L22.0251 22.2833L22.5521 22.8103C23.0203 23.2786 23.7078 23.4519 24.3421 23.2616L28.8156 21.9196C31.0285 21.2557 33.4188 22.0731 34.7616 23.9531L41.7262 33.7036H44.4V21.1036H43.1241C42.4394 21.1036 41.7689 20.9083 41.1913 20.5407L33.712 15.7811ZM19.5271 34.6844L16.6187 37.2293L25.8722 44.4999L27.1392 42.2825C27.5262 41.6053 27.433 40.7559 26.9083 40.1786L22.0443 34.8283C21.3846 34.1025 20.2652 34.0386 19.5271 34.6844Z" fill="#BF7D1D"/>
</svg>
