<svg width="60" height="60" viewBox="0 0 60 60" fill="none" xmlns="http://www.w3.org/2000/svg">
<rect width="60" height="60" rx="30" fill="#FFE9C9"/>
<path d="M21.4547 41.6899L22.7592 42.4506C24.9386 43.7214 27.4154 44.4 30 44.4C37.953 44.4 44.4 37.9529 44.4 30C44.4 22.0471 37.953 15.6 30 15.6C22.0471 15.6 15.6 22.0471 15.6 30C15.6 32.5853 16.279 35.063 17.5506 37.2428L18.3109 38.546L17.1346 42.8689L21.4547 41.6899ZM12.0075 48L14.441 39.0567C12.8891 36.3965 12 33.3021 12 30C12 20.0589 20.0589 12 30 12C39.9411 12 48 20.0589 48 30C48 39.941 39.9411 48 30 48C26.699 48 23.6055 47.1115 20.9458 45.5605L12.0075 48ZM23.5044 21.555C23.7454 21.5381 23.9872 21.5355 24.2285 21.5472C24.326 21.5536 24.423 21.5649 24.5201 21.5761C24.8068 21.6092 25.122 21.7838 25.228 22.0241C25.7649 23.2416 26.286 24.4662 26.791 25.6973C26.9024 25.9691 26.8353 26.3214 26.6232 26.6623C26.5156 26.837 26.3465 27.0822 26.1507 27.3329C25.9471 27.5934 25.509 28.0724 25.509 28.0724C25.509 28.0724 25.3315 28.2851 25.3984 28.5499C25.4245 28.65 25.5076 28.7958 25.583 28.9184C25.6247 28.9862 25.6635 29.0469 25.6886 29.0888C26.1493 29.858 26.7685 30.6377 27.5248 31.3709C27.7416 31.5809 27.9518 31.7953 28.1779 31.9944C29.0208 32.7376 29.9745 33.3449 31.0044 33.7948L31.0136 33.7989C31.1657 33.8644 31.2438 33.9002 31.4665 33.9947C31.5788 34.0423 31.6936 34.0833 31.8115 34.1144C31.8542 34.1256 31.8979 34.1319 31.9419 34.135C32.2329 34.1524 32.4012 33.9658 32.473 33.8799C33.7753 32.3022 33.8945 32.1992 33.9035 32.2V32.2028C34.0747 32.0225 34.3438 31.9598 34.5839 31.9746C34.6935 31.9813 34.8026 32.0023 34.9023 32.0479C35.8596 32.4845 37.4246 33.1657 37.4246 33.1657L38.4714 33.6362C38.6467 33.7208 38.8067 33.92 38.8144 34.1137C38.8191 34.2341 38.8321 34.4285 38.7891 34.7842C38.7327 35.2499 38.5911 35.8106 38.4503 36.1043C38.3513 36.3104 38.2231 36.4933 38.0741 36.6481C37.872 36.858 37.7218 36.9854 37.4788 37.1665C37.3309 37.2767 37.2542 37.3285 37.2542 37.3285C37.0042 37.4862 36.8632 37.565 36.5653 37.7236C36.102 37.9704 35.5901 38.1122 35.0658 38.1392C34.7315 38.1563 34.3981 38.1805 34.0642 38.1625C34.0495 38.1616 33.0415 38.0068 33.0415 38.0068C30.4821 37.3336 28.1151 36.0725 26.1288 34.3236C25.7227 33.9661 25.3461 33.5793 24.9617 33.1966C23.3614 31.6034 22.1499 29.8855 21.4153 28.2605C21.053 27.4591 20.8236 26.6009 20.82 25.7178C20.8133 24.6253 21.171 23.5618 21.8365 22.6953C21.9677 22.5245 22.0922 22.3474 22.307 22.1445C22.5345 21.9297 22.6793 21.8144 22.8353 21.7346C23.0432 21.6282 23.2715 21.5714 23.5044 21.555Z" fill="#BF7D1D"/>
</svg>
